<svg width="562" height="562" viewBox="0 0 562 562" fill="none" xmlns="http://www.w3.org/2000/svg">
<path d="M104.364 130.441C135.746 63.6187 247.179 73.0603 290.172 120.032C333.165 167.004 347.159 197.139 385.948 179.604C424.737 162.07 474.205 166.746 477.048 222.496C479.892 278.247 434.426 344.169 362.299 363.682C290.172 383.194 290.172 452.208 194.711 438.27C142.658 430.683 141.467 374.36 148.818 327.781C156.169 281.203 67.9684 207.94 104.364 130.441Z" fill="#407BFF"/>
<path opacity="0.9" d="M104.364 130.441C135.746 63.6187 247.179 73.0603 290.172 120.032C333.165 167.004 347.159 197.139 385.948 179.604C424.737 162.07 474.205 166.746 477.048 222.496C479.892 278.247 434.426 344.169 362.299 363.682C290.172 383.194 290.172 452.208 194.711 438.27C142.658 430.683 141.467 374.36 148.818 327.781C156.169 281.203 67.9684 207.94 104.364 130.441Z" fill="white"/>
<path d="M280.999 480.577C401.359 480.577 498.931 474.881 498.931 467.854C498.931 460.826 401.359 455.13 280.999 455.13C160.638 455.13 63.0664 460.826 63.0664 467.854C63.0664 474.881 160.638 480.577 280.999 480.577Z" fill="#F5F5F5"/>
<path d="M158.351 217.415C122.001 223.676 93.6085 234.916 94.9123 242.548L95.5305 246.077C96.8343 253.664 127.373 254.732 163.712 248.438C200.051 242.143 228.466 230.903 227.151 223.316L226.544 219.787C225.229 212.189 194.701 211.132 158.351 217.415Z" fill="#407BFF"/>
<path opacity="0.2" d="M163.713 248.436C200.06 242.151 228.461 230.903 227.148 223.312C225.836 215.721 195.307 214.662 158.96 220.946C122.613 227.231 94.2125 238.479 95.5251 246.071C96.8376 253.662 127.366 254.721 163.713 248.436Z" fill="white"/>
<path d="M160.261 228.453C127.665 234.073 102.285 244.189 103.465 250.933L104.477 256.811C105.601 263.611 132.993 264.556 165.533 258.924C198.072 253.293 223.509 243.188 222.328 236.444L221.317 230.577C220.137 223.777 192.801 222.821 160.261 228.453Z" fill="#407BFF"/>
<path opacity="0.2" d="M165.525 258.946C198.067 253.319 223.495 243.248 222.32 236.452C221.145 229.657 193.812 228.709 161.27 234.336C128.728 239.962 103.3 250.033 104.475 256.829C105.65 263.625 132.983 264.573 165.525 258.946Z" fill="white"/>
<path d="M194.24 317.687C192.825 316.946 191.6 315.889 190.659 314.599C189.718 313.308 189.087 311.818 188.814 310.245C188.542 308.671 188.635 307.056 189.086 305.524C189.538 303.993 190.336 302.585 191.418 301.411C204.603 287.058 220.564 264.207 216.517 240.715C215.641 235.691 191.407 235.68 162.385 240.715C133.364 245.751 110.535 253.889 111.401 258.913C115.458 282.371 138.163 298.534 155.405 307.627C156.82 308.368 158.045 309.425 158.986 310.715C159.927 312.006 160.558 313.495 160.83 315.069C161.103 316.642 161.01 318.258 160.559 319.789C160.107 321.321 159.309 322.729 158.227 323.903C145.031 338.245 129.07 361.096 133.128 384.599C134.004 389.634 158.238 389.645 187.26 384.599C216.281 379.552 239.11 371.425 238.289 366.423C234.187 342.932 211.47 326.769 194.24 317.687Z" fill="#407BFF"/>
<path opacity="0.8" d="M194.24 317.687C192.825 316.946 191.6 315.889 190.659 314.599C189.718 313.308 189.087 311.818 188.814 310.245C188.542 308.671 188.635 307.056 189.086 305.524C189.538 303.993 190.336 302.585 191.418 301.411C204.603 287.058 220.564 264.207 216.517 240.715C215.641 235.691 191.407 235.68 162.385 240.715C133.364 245.751 110.535 253.889 111.401 258.913C115.458 282.371 138.163 298.534 155.405 307.627C156.82 308.368 158.045 309.425 158.986 310.715C159.927 312.006 160.558 313.495 160.83 315.069C161.103 316.642 161.01 318.258 160.559 319.789C160.107 321.321 159.309 322.729 158.227 323.903C145.031 338.245 129.07 361.096 133.128 384.599C134.004 389.634 158.238 389.645 187.26 384.599C216.281 379.552 239.11 371.425 238.289 366.423C234.187 342.932 211.47 326.769 194.24 317.687Z" fill="white"/>
<path d="M235.659 367.739C236.176 373.01 142.682 391.208 136.466 383.126C135.838 382.227 135.446 381.186 135.324 380.096C135.202 379.006 135.355 377.903 135.769 376.888C136.405 375.018 137.347 373.268 138.557 371.706C141.446 367.795 147.819 366.086 152.135 364.513C155.046 363.445 157.98 362.467 160.913 361.455C164.06 360.331 167.298 361.118 170.029 358.724C171.67 357.297 172.895 355.172 174.997 354.655C176.559 354.273 178.234 354.891 179.774 354.475C181.775 353.936 183.202 351.778 185.27 351.744C186.296 351.867 187.304 352.113 188.271 352.475C190.07 352.857 191.913 352.261 193.756 352.093C195.572 352.01 197.39 352.142 199.174 352.486C204.75 353.551 210.378 354.328 216.034 354.813C220.204 355.037 224.824 354.936 228.893 356.083C230.671 356.749 232.143 358.045 233.029 359.725C234.479 362.173 235.377 364.908 235.659 367.739Z" fill="#263238"/>
<path opacity="0.2" d="M233.063 359.68C230.477 357.342 225.7 357.499 224.329 357.6C222.958 357.701 222.474 356.532 221.44 356.15C220.406 355.768 214.292 356.555 214.292 356.555C214.292 356.555 216.54 356.993 217.012 357.735C217.484 358.477 220.047 357.623 220.384 357.521C220.035 357.724 216.911 359.365 215.438 358.376C213.966 357.387 213.359 359.23 212.19 359.702C211.021 360.174 207.334 359.702 206.738 359.511C204.979 359.411 203.215 359.411 201.456 359.511C202.367 358.923 203.395 358.54 204.468 358.387C205.457 358.499 209.402 356.42 208.593 356.566C207.784 356.712 205.94 355.633 204.502 355.184C202.756 355.058 201.001 355.171 199.286 355.521C201.033 355.494 202.773 355.737 204.445 356.24C203.297 356.514 202.17 356.871 201.073 357.308C200.07 357.632 199.025 357.809 197.971 357.836C197.123 358.145 196.392 358.711 195.881 359.455C194.596 359.759 193.293 359.985 191.98 360.129C190.685 360.244 189.381 360.091 188.147 359.68L191.699 358.556L190.485 358.207C189.652 357.929 188.794 357.73 187.923 357.611C186.495 357.375 185.888 358.735 185.54 359.061C185.191 359.387 182.067 359.061 181.19 358.848C180.313 358.634 173.828 361.264 173.828 361.264L177.885 360.567C178.938 361.015 180.059 361.278 181.201 361.343C183.91 361.703 184.303 360.804 185.439 360.882C186.574 360.961 190.339 362.006 190.339 362.006L188.878 362.4C187.588 362.579 186.279 362.579 184.989 362.4C182.741 362.096 181.527 363.276 180.853 363.4C179.118 363.79 177.355 364.045 175.581 364.164C174.851 364.007 172.929 364.906 171.872 365.985C171.271 366.584 170.517 367.005 169.692 367.204C168.867 367.402 168.004 367.369 167.196 367.109C165.15 366.581 161.7 369.076 161.7 369.076C161.7 369.076 163.509 366.682 164.454 366.513C165.92 365.94 167.331 365.232 168.669 364.4C168.164 364.394 167.659 364.435 167.162 364.524C166.659 364.565 166.152 364.506 165.672 364.35C165.191 364.194 164.746 363.943 164.364 363.614C163.24 362.838 162.116 363.445 160.463 364.288C158.811 365.131 157.035 366.131 155.293 364.906C153.551 363.681 148.212 368.211 148.212 368.211C149.427 367.917 150.612 367.511 151.752 366.997C152.247 366.592 152.595 366.997 154.169 367.323C155.743 367.649 156.26 366.547 157.035 366.131C157.811 365.715 160.137 366.412 160.137 366.412C159.588 366.673 158.979 366.785 158.373 366.738C157.518 366.603 156.125 369.065 155.675 368.795C155.225 368.525 151.955 368.953 150.55 369.683C149.145 370.414 147.076 372.853 144.997 372.1C143.232 371.459 139.253 376.865 135.758 376.933C136.394 375.063 137.336 373.312 138.545 371.751C141.434 367.84 147.807 366.131 152.123 364.558C155.034 363.49 157.968 362.512 160.902 361.5C164.049 360.376 167.286 361.163 170.017 358.769C171.658 357.342 172.884 355.217 174.985 354.7C176.548 354.318 178.223 354.936 179.762 354.52C181.763 353.981 183.191 351.823 185.259 351.789C186.285 351.912 187.292 352.158 188.26 352.52C190.058 352.902 191.902 352.306 193.745 352.137C195.56 352.055 197.379 352.187 199.163 352.531C204.739 353.596 210.366 354.373 216.023 354.858C220.193 355.082 224.812 354.981 228.881 356.128C230.661 356.763 232.148 358.026 233.063 359.68Z" fill="white"/>
<path d="M184.111 366.423C151.515 372.043 126.135 382.159 127.304 388.903L128.327 394.782C129.451 401.526 156.832 402.526 189.383 396.895C221.934 391.264 247.359 381.159 246.179 374.415L245.167 368.548C243.987 361.691 216.651 360.736 184.111 366.423Z" fill="#407BFF"/>
<path d="M185.922 376.877C149.583 383.16 121.18 394.411 122.495 402.009L123.102 405.527C124.417 413.126 154.945 414.182 191.295 407.899C227.645 401.616 256.037 390.365 254.722 382.766L254.115 379.248C252.8 371.65 222.273 370.594 185.922 376.877Z" fill="#407BFF"/>
<path opacity="0.2" d="M130.049 410.26C130.409 410.361 130.791 410.451 131.173 410.541C130.791 410.406 130.386 410.316 130.049 410.26Z" fill="white"/>
<path opacity="0.2" d="M185.922 376.877C149.583 383.16 121.18 394.411 122.495 402.009L123.102 405.528C121.787 397.896 150.19 386.656 186.586 380.406C222.981 374.157 253.452 375.179 254.767 382.766L254.16 379.248C252.8 371.65 222.273 370.594 185.922 376.877Z" fill="white"/>
<path d="M180.369 308.29C179.661 313.91 177.604 322.419 176.682 328.095C175.761 333.771 178.526 342.572 179.346 345.236C180.167 347.9 185.708 347.484 185.483 349.608C185.259 351.733 193.756 352.092 193.756 352.092C193.756 352.092 153.944 367.828 149.92 366.828C145.896 365.828 157.383 357.971 159.586 357.454C161.789 356.937 162.958 355.577 164.442 352.43C165.926 349.282 167.454 349.844 169.006 346.686C170.388 344.328 171.634 341.892 172.737 339.391C174.502 335.008 176.031 321.531 174.176 320.396C172.321 319.26 174.007 330.725 172.411 331.107C170.815 331.49 174.491 319.777 169.646 313.865C164.802 307.953 180.369 308.29 180.369 308.29Z" fill="#263238"/>
<path opacity="0.2" d="M193.745 352.093C193.745 352.093 153.944 367.829 149.909 366.828C146.234 365.918 155.63 359.185 158.901 357.713C159.115 360.028 165.353 357.657 167.826 356.285C170.299 354.914 170.49 355.914 171.4 355.51C172.311 355.105 179.212 349.957 178.493 350.171C177.773 350.384 172.637 354.172 171.4 352.936C170.164 351.699 168.118 354.06 166.589 354.779C165.263 355.42 164.926 354.644 163.824 353.655C164.038 353.262 164.24 352.835 164.454 352.385C165.904 349.238 167.455 349.8 168.95 346.641C170.362 344.321 171.634 341.919 172.76 339.448C174.536 335.064 176.065 321.587 174.221 320.452C172.378 319.317 174.042 330.782 172.457 331.153C170.872 331.524 174.514 319.834 169.68 313.922C164.847 308.009 180.37 308.302 180.37 308.302C179.662 313.922 177.605 322.43 176.683 328.107C176.076 331.827 177.054 336.885 178.032 340.684C177.773 341.606 177.414 342.449 176.986 342.584C175.964 342.887 175.244 346.383 173.907 346.484C172.569 346.585 173.693 349.047 175.548 348.024C176.773 347.349 178.706 346.9 180.044 346.315C181.775 347.855 185.664 347.833 185.461 349.62C185.27 351.744 193.745 352.093 193.745 352.093Z" fill="white"/>
<path d="M201.962 282.596L201.49 283.372C199.932 286.145 198.236 288.838 196.409 291.442C194.634 294.21 192.59 296.797 190.306 299.164C188.148 301.243 185.945 302.221 184.686 304.705C184.365 305.322 184.12 305.974 183.955 306.65C183.483 308.527 183.337 310.786 181.707 311.842C181.315 312.042 180.94 312.271 180.583 312.528C179.763 313.236 179.808 314.473 179.594 315.529C179.381 316.586 178.358 317.777 177.346 317.26C176.335 316.743 176.29 315.45 175.379 315.495C175.152 315.544 174.929 315.616 174.716 315.709C173.794 315.945 172.94 315.226 172.232 314.585C171.524 313.944 170.512 313.36 169.703 313.854C167.253 311.605 164.561 309.634 161.678 307.976C159.34 306.56 156.912 305.29 154.36 303.918C148.74 300.861 142.221 297.849 138.287 294.746C137.01 293.817 135.942 292.63 135.151 291.262C134.92 290.808 134.768 290.317 134.702 289.812C134.05 284.259 151.236 282.607 157.182 278.471C163.128 274.335 172.412 276.987 176.29 276.122C180.167 275.256 184.585 276.481 188.71 276.178C192.835 275.874 195.375 274.683 197.781 276.436C200.186 278.19 202.85 277.662 203.401 278.999C203.67 279.876 202.659 281.494 201.962 282.596Z" fill="#263238"/>
<path opacity="0.2" d="M196.702 280.842C193.15 280.156 200.4 280.021 199.849 279.605C199.298 279.189 197.522 277.841 193.566 277.975C189.609 278.11 186.305 277.841 185.462 277.975C184.619 278.11 188.215 279.201 188.215 279.201H178.942C175.93 279.201 180.999 277.975 180.999 277.975H165.387C165.803 277.975 168.815 279.751 167.028 279.751C165.241 279.751 163.33 280.707 160.869 281.662C158.915 282.453 156.905 283.096 154.855 283.584C154.45 283.584 160.475 279.088 160.846 278.796C160.475 278.953 155.451 281.044 153.349 281.662C151.247 282.28 145.481 284.27 144.986 284.405C146.038 284.473 147.093 284.473 148.145 284.405C148.145 284.405 143.896 286.597 141.716 286.866C140.075 287.069 136.096 288.417 135.129 291.272C135.919 292.64 136.988 293.827 138.265 294.757C142.199 297.859 148.696 300.871 154.338 303.929C156.89 305.3 159.317 306.57 161.655 307.986C164.539 309.644 167.23 311.616 169.681 313.865C170.49 313.37 171.513 313.977 172.21 314.595C172.907 315.214 173.772 315.944 174.694 315.719C174.907 315.626 175.129 315.555 175.357 315.506C176.267 315.506 176.481 316.855 177.324 317.27C178.167 317.686 179.291 316.596 179.572 315.54C179.853 314.483 179.74 313.292 180.561 312.538C180.917 312.281 181.293 312.052 181.685 311.853C183.326 310.796 183.472 308.537 183.933 306.66C184.098 305.985 184.343 305.332 184.664 304.715C185.956 302.231 188.159 301.254 190.284 299.174C192.567 296.807 194.612 294.221 196.387 291.452C198.214 288.849 199.91 286.155 201.467 283.382C200.231 281.235 200.287 281.527 196.702 280.842ZM145.863 295.352C144.672 295.218 148.527 294.015 148.527 294.015C148.248 294.455 147.856 294.812 147.391 295.048C146.926 295.283 146.406 295.389 145.886 295.352H145.863ZM146.582 290.733C146.582 290.733 148.527 289.193 149.348 289.294C150.137 289.348 150.93 289.348 151.719 289.294C151.719 289.294 148.662 291.351 146.605 290.733H146.582ZM162.082 302.748C160.677 302.479 163.566 301.624 164.263 301.815C164.96 302.007 163.746 303.052 162.105 302.748H162.082ZM169.018 287.012C169.018 287.012 163.06 288.766 164.263 288.766H166.511C166.095 288.766 159.936 290.103 159.632 290.047C160.802 289.27 162.026 288.579 163.296 287.979C163.296 287.979 162.858 287.428 162.88 287.226C162.903 287.024 164.274 286.608 164.274 286.608C164.758 286.192 166.916 285.585 167.736 286.091C168.686 286.454 169.698 286.63 170.715 286.608L169.018 287.012ZM171.524 299.23C169.861 297.713 174.795 299.23 174.795 299.23C174.795 299.23 172.671 300.276 171.547 299.253L171.524 299.23ZM174.222 282.932C176.47 281.392 177.032 282.932 177.032 282.932C177.032 282.932 173.491 283.427 174.222 282.932ZM182.011 288.889L180.28 288.002C181.003 287.565 181.805 287.274 182.64 287.147C183.763 287.101 184.873 287.399 185.821 288.002C186.428 288.372 182.607 289.193 182 288.867L182.011 288.889ZM186.44 296.443C186.44 296.443 183.674 296.375 183.405 296.443C184.391 296.018 185.405 295.661 186.44 295.375V296.443ZM190.733 285.326C190.733 285.326 192.7 284.899 193.622 285.922C194.858 287.293 190.722 285.326 190.722 285.326H190.733Z" fill="white"/>
<path d="M359.164 443.845L368.223 446.576H417.758L418.882 426.726L409.272 422.624C409.272 422.624 411.059 407.281 413.925 390.837L420.5 390.635L434.46 335.559L426.525 332.13L432.269 313.888H440.89L450.084 288.306C450.084 288.306 417.005 275.144 397.357 273.401L379.71 276.357L378.485 299.332L364.109 301.232L361.288 325.96L371.505 327.713L364.93 380.316L350.172 384.464L347.598 420.69L360.445 423.332L359.164 443.845Z" fill="#407BFF"/>
<path opacity="0.6" d="M432.28 313.9L426.525 332.142L434.46 335.57L420.489 390.646L413.925 390.849C411.047 407.293 409.272 422.635 409.272 422.635L418.859 426.738L417.735 446.599H368.212L359.152 443.868L360.456 423.377L347.598 420.747L350.104 385.408L350.172 384.521L364.941 380.373L371.505 327.77L361.288 325.96L364.177 301.232L378.541 299.333L379.778 276.358L397.413 273.391C417.106 275.144 450.14 288.306 450.14 288.306L440.946 313.9H432.28Z" fill="white"/>
<path opacity="0.4" d="M418.86 426.715L369.854 428.087L360.457 423.355L371.225 425.355L409.272 422.613L418.86 426.715Z" fill="white"/>
<path opacity="0.4" d="M413.924 390.826L378.485 390.938L350.104 385.386L350.171 384.498L364.94 380.35L380.541 389.702L413.924 390.826Z" fill="white"/>
<path opacity="0.2" d="M426.524 332.142L382.8 327.86L371.504 327.747L361.287 325.994L382.171 323.6L426.524 332.142Z" fill="black"/>
<path opacity="0.2" d="M440.889 313.9H432.268L397.772 298.141L378.484 299.333L398.829 296.703L440.889 313.9Z" fill="black"/>
<path opacity="0.2" d="M397.356 273.391L398.829 296.702L378.484 299.333L379.71 276.369L397.356 273.391Z" fill="white"/>
<path opacity="0.2" d="M382.171 323.6L387.791 299.333L364.12 301.232L361.287 325.994L382.171 323.6Z" fill="white"/>
<path opacity="0.2" d="M371.506 327.747L392.918 328.849L380.543 389.702L364.941 380.35L371.506 327.747Z" fill="white"/>
<path opacity="0.2" d="M350.104 385.386L378.485 390.938L372.753 425.243L347.598 420.724L350.104 385.386Z" fill="white"/>
<path opacity="0.2" d="M369.853 428.087L368.212 446.577L359.152 443.845L360.456 423.366L369.853 428.087Z" fill="white"/>
<path d="M352.262 393.052L377.181 398.728L406.54 397.435L378.485 403.73L352.262 393.052Z" fill="#407BFF"/>
<path d="M360.074 429.334L369.246 434.966H391.411L364.503 437.124L355.488 430.964L360.074 429.334Z" fill="#407BFF"/>
<path d="M378.934 440.451H418.105L422.623 443.845L378.934 440.451Z" fill="#407BFF"/>
<path d="M370.887 407.765L348.946 401.628L345.023 403.73L370.887 407.765Z" fill="#407BFF"/>
<path d="M377.451 416.386L410.429 413.564L413.925 414.969L377.451 416.386Z" fill="#407BFF"/>
<path d="M387.791 380.351L423.422 379.069L426.524 381.688L387.791 380.351Z" fill="#407BFF"/>
<path d="M413.926 372.865L384.646 369.537L366.572 362.805H360.457L382.015 371.842L413.926 372.865Z" fill="#407BFF"/>
<path d="M373.449 346.585L388.23 351.902L434.325 355.622L430.166 352.531L387.791 349.868L373.449 346.585Z" fill="#407BFF"/>
<path d="M378.485 315.799L357.949 316.822L363.041 319.283L378.485 315.799Z" fill="#407BFF"/>
<path d="M369.854 307.381L385.466 305.301L425.705 319.284L385.252 308.819L369.854 307.381Z" fill="#407BFF"/>
<path d="M419.748 299.333L395.728 286.362L371.91 293.825L378.935 295.713L398.83 292.847L419.748 299.333Z" fill="#407BFF"/>
<path d="M412.352 290.34L448.488 305.301H443.981L412.352 290.34Z" fill="#407BFF"/>
<path d="M400.865 279.044L418.928 281.101L447.028 296.702C447.028 296.702 410.711 280.899 400.865 279.044Z" fill="#407BFF"/>
<path d="M370.472 334.48L379.396 336.728L366.785 335.604L370.472 334.48Z" fill="#407BFF"/>
<path opacity="0.7" d="M352.262 393.052L377.181 398.728L406.54 397.435L378.485 403.73L352.262 393.052Z" fill="white"/>
<path opacity="0.7" d="M360.074 429.334L369.246 434.966H391.411L364.503 437.124L355.488 430.964L360.074 429.334Z" fill="white"/>
<path opacity="0.7" d="M378.934 440.451H418.105L422.623 443.845L378.934 440.451Z" fill="white"/>
<path opacity="0.7" d="M370.887 407.765L348.946 401.628L345.023 403.73L370.887 407.765Z" fill="white"/>
<path opacity="0.7" d="M377.451 416.386L410.429 413.564L413.925 414.969L377.451 416.386Z" fill="white"/>
<path opacity="0.7" d="M387.791 380.351L423.422 379.069L426.524 381.688L387.791 380.351Z" fill="white"/>
<path opacity="0.7" d="M413.926 372.865L384.646 369.537L366.572 362.805H360.457L382.015 371.842L413.926 372.865Z" fill="white"/>
<path opacity="0.7" d="M373.449 346.585L388.23 351.902L434.325 355.622L430.166 352.531L387.791 349.868L373.449 346.585Z" fill="white"/>
<path opacity="0.7" d="M378.485 315.799L357.949 316.822L363.041 319.283L378.485 315.799Z" fill="white"/>
<path opacity="0.7" d="M369.854 307.381L385.466 305.301L425.705 319.284L385.252 308.819L369.854 307.381Z" fill="white"/>
<path opacity="0.7" d="M419.748 299.333L395.728 286.362L371.91 293.825L378.935 295.713L398.83 292.847L419.748 299.333Z" fill="white"/>
<path opacity="0.7" d="M412.352 290.34L448.488 305.301H443.981L412.352 290.34Z" fill="white"/>
<path opacity="0.7" d="M400.865 279.044L418.928 281.101L447.028 296.702C447.028 296.702 410.711 280.899 400.865 279.044Z" fill="white"/>
<path opacity="0.7" d="M370.472 334.48L379.396 336.728L366.785 335.604L370.472 334.48Z" fill="white"/>
<path opacity="0.1" d="M377.451 340.224L389.658 343.304L423.962 346.586L389.658 344.911L377.451 340.224Z" fill="black"/>
<path opacity="0.1" d="M373.449 331.187L392.917 332.142L429.391 338.38L391.782 334.48L373.449 331.187Z" fill="black"/>
<path opacity="0.1" d="M368.223 320.306L383.498 317.901L422.208 326.882L383.172 319.283L368.223 320.306Z" fill="black"/>
<path opacity="0.1" d="M371.91 312.663L384.791 312.292L423.963 322.386L384.42 313.899L371.91 312.663Z" fill="black"/>
<path opacity="0.1" d="M363.648 305.301L383.206 303.064L363.648 306.762V305.301Z" fill="black"/>
<path opacity="0.1" d="M363.041 310.64H369.852L363.041 312.292V310.64Z" fill="black"/>
<path opacity="0.1" d="M379.396 282.214L397.718 279.044L422.21 287.879L397.942 281.101L379.396 283.461V282.214Z" fill="black"/>
<path opacity="0.1" d="M442.552 309.257L414.609 300.535L441.765 311.46L442.552 309.257Z" fill="black"/>
<path opacity="0.1" d="M393.906 284.384L397.998 283.462L442.553 297.815L398.189 284.934L393.906 284.384Z" fill="black"/>
<path opacity="0.1" d="M449.354 290.341L433.371 284.653L448.489 291.779L449.354 290.341Z" fill="black"/>
<path opacity="0.1" d="M369.854 352.947L386.95 358.174L425.705 361.299L386.59 359.983L369.854 352.947Z" fill="black"/>
<path opacity="0.1" d="M366.166 369.099L383.374 375.742L422.209 376.63H383.195L366.166 369.099Z" fill="black"/>
<path opacity="0.1" d="M415.161 387.027L382.014 383.34L368.223 377.72L381.418 385.386L415.161 387.027Z" fill="black"/>
<path opacity="0.1" d="M426.694 366.199C426.379 366.087 399.965 365.401 399.965 365.401L426.278 367.84L426.694 366.199Z" fill="black"/>
<path opacity="0.1" d="M349.609 387.994L377.945 394.176H397.773L377.732 395.39L350.104 389.702L349.609 387.994Z" fill="black"/>
<path opacity="0.1" d="M412.059 402.235C412.059 402.291 384.51 405.315 384.51 405.315L411.823 403.775L412.059 402.235Z" fill="black"/>
<path opacity="0.1" d="M355.488 400.301C355.117 400.122 372.596 403.775 372.596 403.775C372.596 403.775 361.715 403.415 355.488 400.301Z" fill="black"/>
<path opacity="0.1" d="M348.52 407.765L372.596 413.564L348.52 409.619V407.765Z" fill="black"/>
<path opacity="0.1" d="M353.025 416.386L373.448 421.039L403.886 420.421L373.448 422.613L353.025 416.386Z" fill="black"/>
<path opacity="0.1" d="M380.678 410.665H402.023L384.499 411.53L380.678 410.665Z" fill="black"/>
<path opacity="0.1" d="M363.053 428.087L369.617 430.953C369.617 430.953 404.528 430.672 403.899 430.953C403.269 431.234 369.482 432.471 369.482 432.471L363.053 428.087Z" fill="black"/>
<path opacity="0.1" d="M413.925 437.124C413.925 437.124 381.329 437.944 382.015 437.944H408.991L413.925 437.124Z" fill="black"/>
<path opacity="0.1" d="M418.86 430.279C418.86 430.279 413.51 429.739 413.925 430.279C414.341 430.818 418.59 431.527 418.59 431.527L418.86 430.279Z" fill="black"/>
<path opacity="0.1" d="M363.041 440.451L368.661 441.62L398.84 443.845L368.526 443.126L363.041 440.451Z" fill="black"/>
<path d="M305.177 206.276C312.416 209.491 326.039 209.052 331.265 197.599C336.492 186.145 336.121 176.321 324.297 170.814C312.472 165.306 297.568 172.331 296.298 182.751C295.028 193.17 293.758 201.196 305.177 206.276Z" fill="#263238"/>
<path d="M165.744 425.557C166.523 424.46 167.094 423.229 167.43 421.926C167.43 421.926 170.993 417.858 182.301 415.295L183.301 410.203C183.462 409.332 183.35 408.432 182.98 407.627C182.61 406.822 181.999 406.152 181.233 405.707C181.019 405.583 180.788 405.492 180.547 405.437C179.308 405.252 178.057 405.151 176.804 405.134C172.609 405.12 168.416 405.36 164.249 405.853L164.306 406.752L172.174 406.618C174.86 406.618 171.848 408.866 169.004 409.596C166.16 410.327 163.17 411.844 163.384 417.678C163.732 424.579 164.171 427.4 165.744 425.557Z" fill="#2E353A"/>
<path d="M185.223 414.891C185.223 414.891 170.701 418.746 167.43 421.927C167.43 421.927 165.43 416.453 172.915 412.564C182.604 407.54 180.547 405.483 180.547 405.483C181.977 405.889 183.365 406.427 184.695 407.09C187.235 408.596 185.223 414.891 185.223 414.891Z" fill="#E4897B"/>
<path d="M391.466 460.615C390.118 460.593 388.777 460.818 387.51 461.278C387.51 461.278 382.148 460.649 373.628 452.758L368.874 454.826C368.082 455.193 367.422 455.793 366.984 456.548C366.545 457.302 366.35 458.172 366.423 459.041C366.432 459.288 366.482 459.531 366.569 459.761C367.123 460.888 367.75 461.976 368.447 463.02C370.806 466.489 373.373 469.81 376.135 472.968L376.854 472.417L372.268 465.965C370.728 463.774 374.28 464.987 376.517 466.898C378.754 468.809 381.631 470.461 386.352 466.954C391.792 462.841 393.871 460.84 391.466 460.615Z" fill="#2E353A"/>
<path d="M371.65 450.589C371.65 450.589 383.036 460.39 387.51 461.278C387.51 461.278 384.138 466.021 376.697 462.042C367.075 456.895 366.525 459.794 366.525 459.794C366.053 458.383 365.714 456.93 365.513 455.456C365.3 452.477 371.65 450.589 371.65 450.589Z" fill="#E4897B"/>
<path d="M321.541 223.8C325.25 226.329 331.354 249.775 333.197 251.282C335.04 252.788 348.675 245.471 348.675 245.471L351.653 252.102C351.653 252.102 331.061 264.702 328.229 262.331C325.397 259.959 316.135 234.59 316.135 234.59L321.541 223.8Z" fill="#263238"/>
<path opacity="0.2" d="M321.541 223.8C325.25 226.329 331.354 249.775 333.197 251.282C335.04 252.788 348.675 245.471 348.675 245.471L351.653 252.102C351.653 252.102 331.061 264.702 328.229 262.331C325.397 259.959 316.135 234.59 316.135 234.59L321.541 223.8Z" fill="white"/>
<path d="M245.885 246.301L259.901 260.475C259.901 260.475 302.725 275.087 313.403 259.565C313.403 259.565 308.75 236.253 296.746 232.263C284.741 228.272 245.885 246.301 245.885 246.301Z" fill="#263238"/>
<path opacity="0.1" d="M245.885 246.301L259.901 260.475C259.901 260.475 302.725 275.087 313.403 259.565C313.403 259.565 308.75 236.253 296.746 232.263C284.741 228.272 245.885 246.301 245.885 246.301Z" fill="white"/>
<path d="M347.922 251.607L356.408 246.987L360.409 237.478C362.076 238.047 363.709 238.711 365.299 239.468C365.861 239.906 363.5 247.763 362.905 248.257C362.309 248.752 358.937 249.145 358.937 249.145L350.855 254.259L347.922 251.607Z" fill="#E4897B"/>
<path d="M273.435 211.559C273.435 211.559 301.231 210.918 321.542 223.799C319.202 239.691 315.026 255.257 309.099 270.187L268.343 263.443C268.343 263.443 272.704 251.832 267.871 228.599L273.435 211.559Z" fill="#407BFF"/>
<path opacity="0.6" d="M273.435 211.559C273.435 211.559 301.231 210.918 321.542 223.799C319.202 239.691 315.026 255.257 309.099 270.187L268.343 263.443C268.343 263.443 272.704 251.832 267.871 228.599L273.435 211.559Z" fill="white"/>
<path d="M285.495 210.289C291.115 234.162 266.387 255.53 247.515 255.788L242.637 245.436L262.768 237.04L273.479 211.559L285.495 210.289Z" fill="#263238"/>
<path d="M313.021 218.584C313.021 218.584 309.233 251.967 313.403 259.566C313.403 259.566 320.518 246.538 322.125 224.351C319.378 222.008 316.313 220.067 313.021 218.584Z" fill="#263238"/>
<path opacity="0.3" d="M285.495 210.289C291.115 234.162 266.387 255.53 247.515 255.788L242.637 245.436L262.768 237.04L273.479 211.559L285.495 210.289Z" fill="white"/>
<path opacity="0.3" d="M313.021 218.584C313.021 218.584 309.233 251.967 313.403 259.566C313.403 259.566 320.518 246.538 322.125 224.351C319.378 222.008 316.313 220.067 313.021 218.584Z" fill="white"/>
<path d="M291.678 210.615C291.678 210.615 286.62 207.94 278.269 213.077L283.405 216.719L279.595 221.023C279.522 228.765 277.697 236.389 274.256 243.324C274.256 243.324 283.383 234.006 286.462 223.822C289.542 213.639 288.148 211.312 291.678 210.615Z" fill="#263238"/>
<path d="M308.154 215.133C308.154 215.133 314.179 216.437 319.394 223.383L316.18 223.979L319.304 229.408L311.436 246.943C311.436 246.943 310.605 233.455 310.998 225.317C311.069 221.717 310.08 218.176 308.154 215.133Z" fill="#263238"/>
<path opacity="0.2" d="M291.678 210.615C291.678 210.615 286.62 207.94 278.269 213.077L283.405 216.719L279.595 221.023C279.522 228.765 277.697 236.389 274.256 243.324C274.256 243.324 283.383 234.006 286.462 223.822C289.542 213.639 288.148 211.312 291.678 210.615Z" fill="white"/>
<path opacity="0.2" d="M308.154 215.133C308.154 215.133 314.179 216.437 319.394 223.383L316.18 223.979L319.304 229.408L311.436 246.943C311.436 246.943 310.605 233.455 310.998 225.317C311.069 221.717 310.08 218.176 308.154 215.133Z" fill="white"/>
<path d="M308.907 325.049C302.107 353.082 282.482 390.399 278.649 397.626C275.659 403.313 263.801 405.224 249.425 406.888C221.696 410.102 184.346 415.194 184.346 415.194V406.449C184.346 406.449 259.766 388.679 260.991 384.621C262.7 378.878 264.712 351.564 266.51 328.579C266.724 326.016 266.926 323.509 267.117 321.093C267.432 317.114 267.724 313.416 267.971 310.224C268.556 302.907 268.915 298.163 268.915 298.163L309.155 269.76C309.155 269.76 317.405 289.992 308.907 325.049Z" fill="#263238"/>
<path opacity="0.2" d="M308.907 325.049C302.107 353.082 282.482 390.399 278.649 397.626C275.659 403.313 263.801 405.224 249.425 406.888C221.696 410.102 184.346 415.194 184.346 415.194V406.449C184.346 406.449 259.766 388.679 260.991 384.621C262.7 378.878 264.712 351.564 266.51 328.579C266.724 326.016 266.926 323.509 267.117 321.093C267.432 317.114 267.724 313.416 267.971 310.224C268.556 302.907 268.915 298.163 268.915 298.163L309.155 269.76C309.155 269.76 317.405 289.992 308.907 325.049Z" fill="black"/>
<path d="M328.207 359.736C324.408 351.418 291.677 299.568 291.677 299.568L259.508 305.009C269.882 335.435 306.817 366.514 313.078 374.584C319.338 382.654 365.849 454.59 365.849 454.59L371.571 450.544C371.571 450.544 336.255 377.338 328.207 359.736Z" fill="#263238"/>
<path d="M268.309 263.454L310.639 266.208L309.863 271.064C309.863 271.064 305.367 292.835 287.507 304.379L259.508 305.008C259.508 305.008 256.237 287.26 267.264 266.691L268.309 263.454Z" fill="#263238"/>
<path d="M283.101 264.859L269.141 264.039L268.084 267.287L282.786 268.388L283.101 264.859Z" fill="black"/>
<path d="M284.856 264.96L284.541 268.524L309.011 270.367L309.235 266.399L284.856 264.96Z" fill="black"/>
<path d="M302.355 271.064H302.276L297.78 270.805C297.432 270.783 297.105 270.625 296.87 270.367C296.755 270.237 296.667 270.086 296.611 269.922C296.555 269.758 296.532 269.584 296.544 269.411L296.735 266.388C296.745 266.215 296.789 266.046 296.865 265.89C296.94 265.734 297.046 265.595 297.175 265.48C297.305 265.365 297.456 265.277 297.619 265.221C297.783 265.164 297.956 265.141 298.129 265.151L302.625 265.421C302.799 265.427 302.969 265.47 303.126 265.545C303.283 265.62 303.422 265.728 303.535 265.86C303.652 265.988 303.74 266.14 303.796 266.304C303.852 266.468 303.875 266.642 303.861 266.815L303.693 269.794C303.668 270.128 303.519 270.441 303.276 270.671C303.033 270.902 302.713 271.034 302.378 271.041L302.355 271.064ZM298.061 266.298C298.013 266.298 297.966 266.316 297.93 266.35C297.895 266.383 297.873 266.429 297.87 266.478L297.691 269.468C297.695 269.518 297.716 269.565 297.751 269.602C297.786 269.639 297.832 269.663 297.882 269.67L302.378 269.94C302.427 269.935 302.472 269.913 302.507 269.878C302.542 269.843 302.564 269.798 302.569 269.749L302.737 266.77C302.748 266.747 302.753 266.722 302.753 266.697C302.753 266.672 302.748 266.647 302.737 266.624C302.701 266.588 302.653 266.564 302.602 266.556L298.106 266.298H298.061Z" fill="white"/>
<path d="M303.074 268.849L301.377 268.748C301.303 268.744 301.231 268.725 301.164 268.693C301.098 268.66 301.038 268.615 300.989 268.56C300.94 268.505 300.902 268.44 300.878 268.37C300.854 268.3 300.844 268.226 300.849 268.152C300.853 268.079 300.872 268.006 300.904 267.94C300.936 267.873 300.982 267.814 301.037 267.765C301.092 267.715 301.157 267.678 301.227 267.654C301.297 267.63 301.371 267.62 301.444 267.624L303.13 267.725C303.204 267.73 303.277 267.748 303.343 267.781C303.41 267.813 303.469 267.858 303.518 267.913C303.567 267.969 303.605 268.033 303.629 268.103C303.653 268.173 303.663 268.247 303.659 268.321C303.656 268.394 303.638 268.466 303.607 268.533C303.576 268.599 303.532 268.659 303.478 268.708C303.423 268.757 303.36 268.795 303.29 268.819C303.221 268.844 303.148 268.854 303.074 268.849Z" fill="white"/>
<path d="M304.604 240.536L316.169 234.601C316.971 233.411 317.985 232.378 319.159 231.555C320.396 230.982 331.299 232.679 331.299 232.679L327.218 241.3C327.218 241.3 319.148 240.839 318.294 240.176L307.717 245.796L304.604 240.536Z" fill="#E4897B"/>
<path d="M273.434 211.559C262.79 214.324 278.785 253.349 285.798 255.563C292.812 257.777 315.303 242.626 315.303 242.626L311.437 236.129C311.437 236.129 291.778 243.997 289.98 243.132C288.181 242.266 280.92 222.652 279.628 219.146C278.335 215.639 273.434 211.559 273.434 211.559Z" fill="#263238"/>
<path opacity="0.2" d="M273.434 211.559C262.79 214.324 278.785 253.349 285.798 255.563C292.812 257.777 315.303 242.626 315.303 242.626L311.437 236.129C311.437 236.129 291.778 243.997 289.98 243.132C288.181 242.266 280.92 222.652 279.628 219.146C278.335 215.639 273.434 211.559 273.434 211.559Z" fill="white"/>
<path opacity="0.6" d="M313.315 242.626C313.293 242.725 313.235 242.811 313.151 242.868C313.067 242.924 312.965 242.946 312.865 242.93C312.816 242.92 312.769 242.901 312.727 242.873C312.685 242.845 312.648 242.81 312.62 242.768C312.592 242.726 312.572 242.679 312.562 242.63C312.552 242.58 312.552 242.529 312.562 242.48C312.57 242.43 312.588 242.382 312.615 242.339C312.643 242.296 312.679 242.259 312.721 242.23C312.763 242.202 312.811 242.183 312.861 242.173C312.911 242.164 312.962 242.165 313.012 242.176C313.11 242.198 313.197 242.257 313.253 242.341C313.31 242.424 313.332 242.526 313.315 242.626Z" fill="white"/>
<path opacity="0.6" d="M310.616 244.29C310.607 244.34 310.587 244.387 310.56 244.429C310.532 244.471 310.496 244.507 310.454 244.535C310.413 244.564 310.366 244.583 310.316 244.593C310.267 244.603 310.216 244.603 310.166 244.594C310.068 244.572 309.981 244.513 309.925 244.429C309.868 244.346 309.846 244.244 309.863 244.144C309.882 244.044 309.941 243.956 310.025 243.899C310.109 243.842 310.213 243.821 310.312 243.841C310.412 243.86 310.5 243.918 310.557 244.002C310.614 244.087 310.635 244.19 310.616 244.29Z" fill="white"/>
<path d="M369.154 222.192L354.868 259.217C354.684 259.637 354.358 259.979 353.947 260.185C353.537 260.39 353.067 260.445 352.62 260.341L326.465 253.833C326.257 253.785 326.062 253.693 325.893 253.562C325.725 253.432 325.587 253.266 325.488 253.077C325.39 252.888 325.334 252.679 325.324 252.466C325.314 252.253 325.35 252.041 325.431 251.843L339.705 214.819C339.892 214.4 340.218 214.059 340.628 213.854C341.038 213.649 341.507 213.593 341.953 213.695L368.109 220.214C368.317 220.259 368.513 220.349 368.683 220.478C368.853 220.607 368.993 220.771 369.092 220.96C369.192 221.148 369.249 221.356 369.26 221.569C369.271 221.782 369.234 221.995 369.154 222.192Z" fill="#263238"/>
<path opacity="0.3" d="M369.155 222.192L354.869 259.216C354.684 259.637 354.358 259.979 353.948 260.184C353.537 260.389 353.068 260.445 352.621 260.34L327.657 254.125C327.447 254.08 327.25 253.99 327.079 253.86C326.908 253.731 326.768 253.565 326.669 253.375C326.57 253.184 326.515 252.974 326.507 252.76C326.499 252.546 326.538 252.332 326.623 252.135L340.898 215.111C341.082 214.69 341.408 214.348 341.819 214.143C342.229 213.937 342.699 213.882 343.146 213.987L368.121 220.202C368.33 220.248 368.526 220.34 368.696 220.47C368.865 220.6 369.004 220.766 369.103 220.955C369.202 221.145 369.257 221.354 369.266 221.568C369.275 221.781 369.237 221.994 369.155 222.192Z" fill="white"/>
<path opacity="0.3" d="M349.092 234.669C348.443 234.523 347.763 234.611 347.173 234.917C346.583 235.224 346.12 235.729 345.866 236.344C345.748 236.624 345.693 236.926 345.705 237.23C345.716 237.533 345.793 237.831 345.931 238.102C346.069 238.372 346.265 238.61 346.504 238.797C346.743 238.985 347.02 239.118 347.316 239.187C347.965 239.335 348.645 239.248 349.236 238.942C349.827 238.635 350.289 238.128 350.542 237.512C350.245 237.445 349.966 237.313 349.726 237.126C349.486 236.939 349.29 236.701 349.152 236.43C349.013 236.158 348.936 235.86 348.926 235.556C348.916 235.252 348.972 234.949 349.092 234.669Z" fill="white"/>
<path d="M283.652 220.057C283.652 220.057 285.305 212.616 288.238 211.065C291.172 209.513 305.177 211.975 310.044 216.55C313.048 219.588 314.948 223.545 315.439 227.79L309.178 225.137L299.681 235.838L292.24 220.866L283.652 220.057Z" fill="#407BFF"/>
<path opacity="0.5" d="M283.652 220.057C283.652 220.057 285.305 212.616 288.238 211.065C291.172 209.513 305.177 211.975 310.044 216.55C313.048 219.588 314.948 223.545 315.439 227.79L309.178 225.137L299.681 235.838L292.24 220.866L283.652 220.057Z" fill="white"/>
<path d="M297.725 211.368C305.806 211.987 309.999 217.573 308.965 222.148L303.941 222.844L299.894 233.86L298.298 221.619L293.229 218.393C293.229 218.393 289.992 210.761 297.725 211.368Z" fill="#E4897B"/>
<path d="M300.703 223.417C292.992 217.336 293.892 212.571 293.892 212.571C297.679 210.48 300.197 205.961 301.108 202.455C301.405 201.35 301.608 200.222 301.715 199.083L310.65 206.951C309.578 208.212 308.598 209.55 307.717 210.952C307.056 211.977 306.524 213.079 306.132 214.234C305.008 217.606 306.705 218.73 306.705 218.73C306.48 223.17 300.703 223.417 300.703 223.417Z" fill="#E4897B"/>
<path opacity="0.2" d="M307.537 210.401C307.018 211.503 306.64 212.666 306.413 213.863C302.389 211.424 300.647 206.602 299.916 202.747C300.069 201.629 300.129 200.502 300.096 199.375L309.953 206.119C309.046 207.486 308.239 208.917 307.537 210.401Z" fill="black"/>
<path d="M321.856 180.402C331.051 184.842 331.635 191.192 327.735 200.982C322.857 213.234 316.169 220.371 305.895 212.29C291.947 201.319 306.592 173.028 321.856 180.402Z" fill="#E4897B"/>
<path d="M322.038 197.599C322.109 199.327 322.388 201.041 322.87 202.702C322.419 202.953 321.907 203.074 321.391 203.052C320.875 203.031 320.376 202.867 319.947 202.578L322.038 197.599Z" fill="#DE5753"/>
<path d="M316.776 194.137C316.427 194.901 315.73 195.329 315.225 195.092C314.719 194.856 314.584 194.058 314.932 193.294C315.281 192.53 315.966 192.103 316.483 192.327C317 192.552 317.124 193.328 316.776 194.137Z" fill="#263238"/>
<path d="M316.248 192.271L318.204 192.372C318.204 192.372 316.743 193.395 316.248 192.271Z" fill="#263238"/>
<path d="M326.34 198.285C325.992 199.049 325.295 199.487 324.789 199.251C324.283 199.015 324.148 198.217 324.497 197.453C324.845 196.689 325.531 196.25 326.048 196.486C326.565 196.722 326.689 197.52 326.34 198.285Z" fill="#263238"/>
<path d="M325.812 196.43L327.768 196.531C327.768 196.531 326.307 197.554 325.812 196.43Z" fill="#263238"/>
<path d="M319.385 189.146C319.316 189.145 319.248 189.126 319.189 189.09C319.13 189.055 319.081 189.004 319.048 188.944C318.662 188.306 318.137 187.763 317.513 187.356C316.888 186.949 316.179 186.689 315.439 186.595C315.387 186.595 315.336 186.584 315.288 186.564C315.24 186.543 315.197 186.513 315.161 186.475C315.125 186.437 315.098 186.392 315.08 186.343C315.062 186.294 315.054 186.242 315.057 186.19C315.057 186.137 315.068 186.085 315.088 186.037C315.109 185.988 315.139 185.944 315.176 185.908C315.214 185.871 315.259 185.842 315.308 185.823C315.357 185.804 315.409 185.795 315.462 185.797C318.115 185.864 319.666 188.438 319.733 188.539C319.786 188.632 319.801 188.741 319.773 188.845C319.746 188.948 319.679 189.036 319.587 189.09C319.525 189.126 319.456 189.145 319.385 189.146Z" fill="#263238"/>
<path d="M330.455 192.373H330.287C329.713 192.053 329.075 191.867 328.419 191.826C327.764 191.785 327.108 191.891 326.499 192.136C326.453 192.162 326.403 192.178 326.351 192.184C326.299 192.19 326.246 192.186 326.196 192.171C326.146 192.157 326.099 192.132 326.058 192.099C326.017 192.066 325.984 192.025 325.959 191.979C325.932 191.934 325.914 191.884 325.907 191.831C325.901 191.779 325.905 191.726 325.92 191.675C325.934 191.624 325.96 191.577 325.993 191.537C326.027 191.496 326.069 191.463 326.117 191.44C326.833 191.133 327.61 190.993 328.389 191.03C329.168 191.067 329.928 191.28 330.613 191.653C330.707 191.699 330.779 191.78 330.815 191.879C330.85 191.977 330.846 192.086 330.804 192.181C330.768 192.241 330.716 192.291 330.655 192.324C330.594 192.358 330.525 192.374 330.455 192.373Z" fill="#263238"/>
<path d="M304.333 191.079C304.333 191.079 312.279 185.606 314.449 179.457C314.449 179.457 336.265 180.817 328.229 199.689C328.229 199.689 337.94 184.133 322.317 176.085C306.693 168.037 295.61 191.293 300.41 202.117C300.41 202.117 299.387 194.451 304.333 191.079Z" fill="#263238"/>
<path d="M304.895 193.698C305.314 192.592 305.28 191.365 304.8 190.283C304.32 189.202 303.433 188.353 302.332 187.921C299.331 186.853 295.15 192.046 301.557 196.913C302.478 197.565 303.535 196.857 304.895 193.698Z" fill="#E4897B"/>
<path d="M314.035 171.342C314.035 171.342 320.97 169.791 325.41 171.994C329.85 174.197 330.153 177.502 330.153 177.502C331.18 177.316 332.237 177.379 333.234 177.686C334.232 177.993 335.141 178.535 335.886 179.267C338.651 181.818 340.28 189.158 337.347 197.015C334.413 204.871 327.568 203.759 327.568 203.759C327.568 203.759 336.493 192.103 326.984 184.527C326.984 184.527 323.87 180.795 320.24 183.054C316.609 185.314 314.024 194.744 306.032 188.607C298.041 182.47 307.145 173.152 314.035 171.342Z" fill="#263238"/>
<path d="M317.799 206.67C317.703 206.668 317.61 206.632 317.538 206.568C317.466 206.504 317.419 206.417 317.406 206.321C317.226 204.894 314.832 203.275 313.921 202.781C313.83 202.727 313.762 202.639 313.733 202.537C313.704 202.434 313.715 202.324 313.764 202.23C313.79 202.185 313.824 202.145 313.865 202.113C313.906 202.081 313.953 202.058 314.003 202.044C314.054 202.031 314.106 202.027 314.157 202.034C314.209 202.041 314.259 202.058 314.304 202.084C314.45 202.163 317.923 204.107 318.193 206.22C318.206 206.324 318.178 206.429 318.115 206.513C318.052 206.597 317.959 206.653 317.855 206.67H317.799Z" fill="#263238"/>
<path d="M314.718 172.815C314.718 172.815 309.896 156.809 299.421 161.417C288.945 166.026 283.853 177.592 275.378 170.848C266.903 164.104 263.014 172.848 258.901 175.512C254.787 178.176 247.503 174.175 249.448 170.848C249.448 170.848 244.109 174.928 253.573 179.222C263.037 183.515 267.679 174.546 270.691 177.94C273.704 181.335 284.37 188.09 289.99 183.212C291.57 181.819 293.497 180.881 295.568 180.497C297.638 180.113 299.774 180.298 301.747 181.031L314.718 172.815Z" fill="#263238"/>
<path d="M286.406 187.707C285.68 187.706 284.96 187.572 284.282 187.314C282.259 186.512 280.282 185.6 278.358 184.583C274.177 182.469 270.221 180.469 268.018 182.211C267.965 182.262 267.894 182.291 267.821 182.291C267.747 182.291 267.677 182.262 267.624 182.211C267.597 182.186 267.576 182.155 267.561 182.121C267.547 182.088 267.539 182.051 267.539 182.014C267.539 181.977 267.547 181.941 267.561 181.907C267.576 181.873 267.597 181.843 267.624 181.818C270.108 179.862 274.222 181.941 278.561 184.133C280.47 185.145 282.432 186.053 284.439 186.853C288.103 188.213 291.588 185.279 294.668 182.683C296.916 180.817 298.961 179.064 300.917 179.008C300.954 179.006 300.991 179.012 301.026 179.025C301.06 179.037 301.092 179.057 301.119 179.082C301.146 179.107 301.168 179.137 301.184 179.171C301.199 179.204 301.208 179.24 301.209 179.277C301.209 179.353 301.18 179.426 301.128 179.48C301.075 179.535 301.004 179.567 300.928 179.57C299.175 179.626 297.163 181.312 295.039 183.11C292.465 185.212 289.553 187.707 286.406 187.707Z" fill="#263238"/>
<path d="M256.834 173.647C256.123 173.646 255.433 173.413 254.867 172.983C254.835 172.963 254.808 172.937 254.787 172.905C254.766 172.874 254.752 172.839 254.746 172.802C254.74 172.765 254.741 172.727 254.75 172.69C254.76 172.654 254.776 172.62 254.799 172.59C254.842 172.532 254.906 172.492 254.977 172.48C255.048 172.467 255.121 172.483 255.181 172.523C257.609 174.242 260.195 171.657 262.712 169.151C264.488 167.375 266.163 165.7 267.804 165.498C269.445 165.295 271.491 166.374 273.919 167.746C277.651 170.185 281.87 171.78 286.283 172.421C286.357 172.429 286.426 172.466 286.473 172.524C286.52 172.582 286.543 172.656 286.535 172.731C286.528 172.805 286.491 172.874 286.433 172.921C286.375 172.968 286.301 172.991 286.226 172.983C281.724 172.333 277.417 170.71 273.604 168.229C271.277 166.869 269.434 165.801 267.849 165.981C266.264 166.161 264.792 167.768 263.083 169.477C261.15 171.5 258.992 173.647 256.834 173.647Z" fill="#263238"/>
<path d="M311.437 193.508C310.229 193.458 309.053 193.115 308.008 192.507C307.976 192.488 307.948 192.462 307.926 192.432C307.904 192.401 307.888 192.366 307.88 192.33C307.872 192.293 307.871 192.255 307.877 192.218C307.884 192.181 307.898 192.145 307.918 192.114C307.938 192.083 307.963 192.056 307.993 192.036C308.023 192.015 308.057 192 308.093 191.993C308.128 191.985 308.165 191.985 308.201 191.993C308.237 192 308.271 192.014 308.301 192.035C308.469 192.136 312.347 194.508 314.505 191.248C320.058 182.807 322.047 180.739 325.43 182.2C325.465 182.214 325.497 182.234 325.524 182.261C325.551 182.287 325.572 182.319 325.585 182.353C325.599 182.388 325.605 182.426 325.604 182.463C325.602 182.501 325.593 182.537 325.576 182.571C325.545 182.638 325.489 182.69 325.42 182.717C325.351 182.744 325.274 182.744 325.206 182.717C322.351 181.481 320.631 182.965 314.966 191.563C314.6 192.168 314.081 192.666 313.461 193.008C312.842 193.349 312.144 193.521 311.437 193.508Z" fill="#263238"/>
<path d="M358.557 250.236L381.52 241.244C381.52 241.244 407.552 256.474 424.097 258.992L395.48 264.612C395.48 264.612 364.514 258.52 358.557 250.236Z" fill="#407BFF"/>
<path d="M219.461 324.016L236.905 308.28C236.905 308.28 266.725 312.776 289.992 324.016L265.691 338.931C265.691 338.931 242.784 327.298 219.461 324.016Z" fill="#407BFF"/>
<path d="M79.6133 344.124L102.026 336.391C102.026 336.391 121.471 357.173 136.971 357.173L111.276 369.515C111.276 369.515 83.8845 359.028 79.6133 344.124Z" fill="#407BFF"/>
<path d="M165.601 266.253C165.601 266.253 194.825 262.881 215.585 278.977L204.896 292.139C204.896 292.139 179.212 281.281 156.732 287.643L165.601 266.253Z" fill="#407BFF"/>
<path d="M429.424 389.174L457.614 393.985C457.614 393.985 433.144 410.26 412.508 413.205L390.264 406C390.264 406 417.082 403.201 429.424 389.174Z" fill="#407BFF"/>
<path d="M420.479 340.358C420.479 340.358 447.578 338.897 466.742 346.844L478.241 335.874C478.241 335.874 448.151 322.689 428.785 329.276L420.479 340.358Z" fill="#407BFF"/>
<path d="M235.242 443.98C235.242 443.98 248.786 429.717 282.608 425.996L303.109 435.235C303.109 435.235 272.525 441.878 258.599 448.341L235.242 443.98Z" fill="#407BFF"/>
<path opacity="0.6" d="M358.557 250.236L381.52 241.244C381.52 241.244 407.552 256.474 424.097 258.992L395.48 264.612C395.48 264.612 364.514 258.52 358.557 250.236Z" fill="white"/>
<path opacity="0.6" d="M219.461 324.016L236.905 308.28C236.905 308.28 266.725 312.776 289.992 324.016L265.691 338.931C265.691 338.931 242.784 327.298 219.461 324.016Z" fill="white"/>
<path opacity="0.6" d="M79.6133 344.124L102.026 336.391C102.026 336.391 121.471 357.173 136.971 357.173L111.276 369.515C111.276 369.515 83.8845 359.028 79.6133 344.124Z" fill="white"/>
<path opacity="0.4" d="M165.601 266.253C165.601 266.253 194.825 262.881 215.585 278.977L204.896 292.139C204.896 292.139 179.212 281.281 156.732 287.643L165.601 266.253Z" fill="white"/>
<path opacity="0.8" d="M429.424 389.174L457.614 393.985C457.614 393.985 433.144 410.26 412.508 413.205L390.264 406C390.264 406 417.082 403.201 429.424 389.174Z" fill="white"/>
<path opacity="0.4" d="M420.479 340.358C420.479 340.358 447.578 338.897 466.742 346.844L478.241 335.874C478.241 335.874 448.151 322.689 428.785 329.276L420.479 340.358Z" fill="white"/>
<path opacity="0.4" d="M235.242 443.98C235.242 443.98 248.786 429.717 282.608 425.996L303.109 435.235C303.109 435.235 272.525 441.878 258.599 448.341L235.242 443.98Z" fill="white"/>
</svg>
