<?xml version="1.0" encoding="utf-8"?>
<!-- Generator: Adobe Illustrator 28.3.0, SVG Export Plug-In . SVG Version: 6.00 Build 0)  -->
<svg version="1.1" id="Layer_1" xmlns="http://www.w3.org/2000/svg" xmlns:xlink="http://www.w3.org/1999/xlink" x="0px" y="0px"
	 viewBox="0 0 540.1 625" style="enable-background:new 0 0 540.1 625;" xml:space="preserve">
<style type="text/css">
	.st0{fill:#FFFFFF;}
	.st1{fill:none;stroke:#EDEBEC;}
	.st2{fill:none;stroke:#EDEBEC;stroke-width:2;}
	.st3{fill:none;stroke:#EDEBEC;stroke-width:3;}
	.st4{fill:none;stroke:#EDEBEC;stroke-width:4;}
	.st5{fill:none;stroke:#EDEBEC;stroke-width:5;}
	.st6{fill:none;stroke:#EDEBEC;stroke-width:6;}
	.st7{clip-path:url(#SVGID_00000067208964669112121110000017622561558190177210_);}
	.st8{clip-path:url(#SVGID_00000075883985665178429790000003813478721407393190_);}
	.st9{clip-path:url(#SVGID_00000070835863354454055170000002108564592387624090_);}
</style>
<path class="st0" d="M507.5-254.1c0,50-16.2,96.2-43.7,133.6c-0.9,1.2-1.8,2.4-2.7,3.6H99.5c-3.5-4.5-6.8-9.2-9.9-14
	c-23.1-35.5-36.5-77.8-36.5-123.2c0-125.1,101.7-226.6,227.2-226.6S507.5-379.2,507.5-254.1L507.5-254.1z"/>
<g>
	<circle class="st1" cx="261.5" cy="363.5" r="261"/>
	<circle class="st2" cx="261.5" cy="363.5" r="246.3"/>
	<circle class="st3" cx="261.5" cy="363.5" r="229.8"/>
	<circle class="st4" cx="261.5" cy="363.5" r="210"/>
	<circle class="st5" cx="261.5" cy="363.5" r="192.8"/>
	<circle class="st6" cx="261.5" cy="363.5" r="171.8"/>
	<path class="st0" d="M488.4,371.6c0,50-16.2,96.2-43.7,133.6c-0.9,1.2-1.8,2.4-2.7,3.6H80.4c-3.5-4.5-6.8-9.2-9.9-14
		C47.4,459.3,34,417,34,371.6C34,246.4,135.7,145,261.2,145S488.4,246.4,488.4,371.6L488.4,371.6z"/>
	<path class="st0" d="M106.3,58.4c0,0,0.8,1,2.2,2.6c1.4,1.7,3.4,4.1,5.6,7.2c1.1,1.5,2.3,3.2,3.5,5c0.6,0.9,1.2,1.9,1.8,2.8
		c0.6,1,1.1,2,1.7,3c1.1,2.1,2.1,4.3,3.1,6.6c0.9,2.3,1.8,4.6,2.6,7.1c0.4,1.2,0.8,2.4,1.1,3.6c0.2,0.6,0.3,1.2,0.5,1.8
		c0.1,0.6,0.3,1.2,0.4,1.8c0.5,2.5,0.9,4.9,1.1,7.2c0.4,4.7,0.6,9.1,0.7,12.8c0.1,3.8,0.1,6.9,0.1,9.1c0,2.2,0,3.4,0,3.4
		s-0.3-5-0.6-12.5c-0.2-3.7-0.4-8.1-1-12.8c-0.3-2.3-0.6-4.7-1.2-7.1c-0.1-0.6-0.3-1.2-0.4-1.8c-0.2-0.6-0.3-1.2-0.5-1.8
		c-0.3-1.2-0.7-2.4-1.1-3.6c-0.8-2.4-1.6-4.7-2.5-7c-0.9-2.3-1.9-4.5-3-6.5c-1.1-2.1-2.2-4-3.3-5.9s-2.2-3.5-3.3-5.1
		c-1.1-1.5-2-3-2.9-4.2c-0.9-1.2-1.7-2.3-2.3-3.2C107.1,59.4,106.3,58.4,106.3,58.4L106.3,58.4z"/>
	<path class="st0" d="M52.8,64c0,0,0.4,0.1,1.1,0.2c0.7,0.2,1.8,0.4,3.1,0.7c0.7,0.2,1.4,0.3,2.2,0.6c0.8,0.2,1.7,0.5,2.6,0.8
		c0.9,0.3,1.9,0.6,2.9,1c0.5,0.2,1,0.4,1.6,0.6c0.5,0.2,1.1,0.5,1.6,0.7c1.1,0.5,2.2,1,3.3,1.6c1.1,0.6,2.3,1.2,3.4,2
		c2.3,1.4,4.7,3,7.1,4.8c1.2,0.9,2.3,1.9,3.5,2.8c1.2,1,2.3,2,3.5,3c2.3,2.1,4.6,4.2,6.8,6.5c1.1,1.1,2.2,2.3,3.3,3.4
		c1,1.2,2.1,2.3,3.1,3.5c0.5,0.6,1,1.2,1.5,1.8c0.5,0.6,0.9,1.2,1.4,1.8c0.9,1.2,1.8,2.5,2.6,3.7c1.7,2.5,3.1,4.9,4.4,7.3
		c1.3,2.4,2.4,4.7,3.3,6.9c1,2.2,1.7,4.2,2.4,6c0.7,1.8,1.2,3.4,1.6,4.7c0.4,1.3,0.7,2.4,0.9,3.1c0.2,0.7,0.3,1.1,0.3,1.1
		s-0.5-1.5-1.4-4.1c-0.5-1.3-1.1-2.9-1.8-4.6c-0.7-1.8-1.6-3.7-2.6-5.9c-1-2.1-2.1-4.4-3.5-6.7c-0.6-1.2-1.4-2.3-2.1-3.6
		c-0.8-1.2-1.5-2.4-2.4-3.6c-0.8-1.2-1.7-2.4-2.6-3.6c-0.5-0.6-0.9-1.2-1.4-1.8c-0.5-0.6-1-1.2-1.5-1.8c-1-1.2-2.1-2.3-3.1-3.5
		c-1.1-1.1-2.2-2.2-3.3-3.3c-1.1-1.1-2.2-2.2-3.4-3.3c-1.1-1.1-2.3-2.1-3.4-3.2c-1.1-1-2.3-2-3.4-3c-1.2-1-2.3-1.9-3.5-2.8
		c-1.2-0.9-2.3-1.8-3.5-2.6c-0.6-0.4-1.1-0.8-1.7-1.2c-0.6-0.4-1.1-0.8-1.7-1.1c-1.1-0.8-2.3-1.4-3.4-2c-1.1-0.6-2.2-1.2-3.3-1.7
		c-0.5-0.2-1.1-0.5-1.6-0.7c-0.5-0.2-1-0.4-1.5-0.6c-1-0.4-1.9-0.8-2.8-1.1c-0.9-0.4-1.7-0.6-2.5-0.9c-0.8-0.3-1.5-0.5-2.2-0.7
		c-1.3-0.4-2.4-0.7-3.1-0.9L52.8,64L52.8,64z"/>
	<path class="st0" d="M53.1,118.1c0,0,1,0.1,2.8,0.2c1.8,0.1,4.3,0.3,7.3,0.7c1.5,0.2,3.1,0.4,4.8,0.7c1.7,0.3,3.5,0.6,5.3,1.1
		c1.8,0.4,3.7,0.9,5.6,1.5c1.9,0.6,3.8,1.2,5.7,1.9c1.9,0.7,3.7,1.5,5.5,2.4c1.8,0.9,3.5,1.8,5.1,2.8c3.2,2,6.1,4.1,8.4,6
		c2.3,1.9,4.1,3.7,5.4,4.9c0.6,0.6,1.1,1.1,1.4,1.5c0.3,0.4,0.5,0.5,0.5,0.5s-0.2-0.2-0.5-0.5c-0.3-0.3-0.8-0.8-1.5-1.4
		c-1.3-1.2-3.2-2.8-5.6-4.6c-2.4-1.8-5.3-3.8-8.5-5.7c-1.6-0.9-3.3-1.9-5.1-2.7c-1.8-0.9-3.6-1.6-5.5-2.3c-3.7-1.4-7.6-2.6-11.2-3.4
		c-1.8-0.4-3.6-0.8-5.3-1.2c-1.7-0.3-3.3-0.6-4.8-0.9c-1.5-0.2-2.9-0.5-4.1-0.7c-1.2-0.2-2.3-0.3-3.1-0.5
		C54.1,118.2,53.1,118.1,53.1,118.1z"/>
	<path class="st0" d="M36.5,126.3l4.7-5.5l6.7,2.8l-3.8-6.2l4.7-5.5l-7,1.7l-3.8-6.2l-0.6,7.2l-7,1.7l6.7,2.8L36.5,126.3z"/>
	<path class="st0" d="M29.4,71.8l9.8-6.8l9.5,7.2l-3.4-11.4l9.8-6.8l-11.9-0.3l-3.4-11.4l-3.9,11.2l-11.9-0.3l9.5,7.2L29.4,71.8z"/>
	<path class="st0" d="M86.5,56.3l9.9-2.1l5.1,8.8l1-10.1l9.9-2.1l-9.3-4.1l1-10.1L97.5,44L88.2,40l5.1,8.7L86.5,56.3z"/>
	<path class="st0" d="M487,130.3c0,0-0.8,0.2-2.3,0.7c-1.4,0.5-3.5,1.1-5.9,2c-1.2,0.4-2.5,1-3.9,1.6c-0.7,0.3-1.4,0.6-2.1,1
		c-0.7,0.4-1.4,0.7-2.1,1.1c-1.4,0.8-2.9,1.7-4.3,2.6c-1.4,1-2.8,2-4.2,3.1c-0.7,0.5-1.3,1.1-2,1.7c-0.3,0.3-0.7,0.6-1,0.8
		c-0.3,0.3-0.6,0.6-0.9,0.9c-1.2,1.2-2.4,2.5-3.4,3.7c-2,2.5-3.8,5-5.3,7.1c-1.5,2.1-2.7,3.9-3.5,5.2c-0.8,1.3-1.3,2-1.3,2
		s2.1-2.8,5.1-6.9c1.5-2.1,3.4-4.5,5.5-6.9c1-1.2,2.2-2.5,3.4-3.6c0.3-0.3,0.6-0.6,0.9-0.9c0.3-0.3,0.7-0.5,1-0.8
		c0.7-0.6,1.3-1.1,2-1.6c1.4-1.1,2.7-2.1,4.1-3c1.4-0.9,2.8-1.8,4.2-2.6c1.4-0.8,2.8-1.5,4.1-2.1c1.3-0.6,2.6-1.2,3.8-1.7
		c1.2-0.5,2.3-0.9,3.3-1.3c1-0.4,1.8-0.7,2.5-1C486.2,130.5,487,130.2,487,130.3L487,130.3z"/>
	<path class="st0" d="M515.6,153.9c0,0-0.3-0.1-0.7-0.3c-0.5-0.2-1.2-0.5-2.1-0.8c-0.4-0.2-0.9-0.3-1.5-0.5
		c-0.5-0.2-1.1-0.4-1.8-0.6c-0.6-0.2-1.3-0.4-2-0.5c-0.4-0.1-0.7-0.2-1.1-0.2c-0.4-0.1-0.8-0.1-1.2-0.2c-0.8-0.2-1.7-0.2-2.5-0.4
		c-0.9-0.1-1.8-0.2-2.7-0.2c-1.9-0.1-3.9,0-5.9,0.1c-1,0.1-2.1,0.2-3.1,0.3c-1,0.1-2.1,0.3-3.2,0.4c-2.1,0.3-4.3,0.7-6.4,1.1
		c-1.1,0.2-2.1,0.5-3.2,0.7c-1,0.3-2.1,0.5-3.1,0.8c-0.5,0.2-1,0.3-1.5,0.5c-0.5,0.2-1,0.3-1.5,0.5c-1,0.3-2,0.7-2.9,1.1
		c-1.9,0.8-3.7,1.7-5.3,2.6c-1.7,0.9-3.2,1.8-4.6,2.7c-1.4,0.9-2.6,1.7-3.7,2.5c-1.1,0.8-2,1.5-2.7,2.1c-0.7,0.6-1.3,1.1-1.7,1.4
		c-0.4,0.3-0.6,0.5-0.6,0.5s0.9-0.7,2.4-1.8c0.8-0.6,1.7-1.2,2.8-2c1.1-0.7,2.4-1.5,3.7-2.4c1.4-0.8,2.9-1.7,4.6-2.5
		c0.8-0.4,1.7-0.8,2.6-1.2c0.9-0.4,1.8-0.8,2.7-1.2c0.9-0.4,1.9-0.8,2.9-1.1c0.5-0.2,1-0.3,1.5-0.5c0.5-0.1,1-0.3,1.5-0.4
		c1-0.3,2.1-0.5,3.1-0.8c1.1-0.2,2.1-0.4,3.2-0.6c1.1-0.2,2.1-0.4,3.2-0.6c1.1-0.2,2.1-0.4,3.2-0.5c1.1-0.2,2.1-0.3,3.1-0.4
		c1-0.1,2.1-0.2,3.1-0.3c1-0.1,2-0.2,3-0.2c0.5,0,1,0,1.4,0c0.5,0,0.9,0,1.4,0c0.9,0,1.8,0.1,2.7,0.1c0.9,0.1,1.7,0.1,2.5,0.3
		c0.4,0.1,0.8,0.1,1.2,0.2c0.4,0.1,0.8,0.1,1.1,0.2c0.7,0.1,1.4,0.3,2.1,0.4c0.6,0.1,1.2,0.3,1.8,0.5c0.5,0.1,1.1,0.3,1.5,0.4
		c0.9,0.3,1.6,0.5,2.1,0.7L515.6,153.9L515.6,153.9z"/>
	<path class="st0" d="M494.8,184.9c0,0-0.6-0.4-1.7-0.9c-1.1-0.6-2.6-1.4-4.4-2.4c-0.9-0.5-1.9-0.9-3-1.4c-1.1-0.5-2.3-1-3.5-1.4
		c-1.2-0.5-2.5-0.9-3.8-1.3c-1.3-0.4-2.7-0.8-4-1.1c-1.4-0.3-2.7-0.6-4.1-0.7c-1.4-0.2-2.7-0.3-4-0.3c-2.6-0.1-5,0-7.1,0.2
		c-2.1,0.2-3.8,0.5-5,0.8c-0.6,0.1-1.1,0.2-1.4,0.3c-0.3,0.1-0.5,0.1-0.5,0.1s0.2,0,0.5-0.1c0.3-0.1,0.8-0.1,1.4-0.2
		c1.2-0.2,2.9-0.4,5-0.5c2.1-0.1,4.5-0.2,7.1,0c1.3,0.1,2.6,0.2,4,0.4c1.3,0.2,2.7,0.5,4,0.8c2.7,0.6,5.3,1.4,7.8,2.3
		c1.2,0.4,2.4,0.9,3.5,1.4c1.1,0.4,2.1,0.9,3.1,1.3c0.9,0.4,1.8,0.8,2.6,1.2c0.8,0.4,1.4,0.7,2,0.9
		C494.1,184.6,494.8,184.9,494.8,184.9z"/>
	<path class="st0" d="M501.2,196l-0.6-5l-4.9-1l4.5-2.1l-0.6-5l3.4,3.7l4.5-2.1l-2.4,4.4l3.4,3.7l-4.9-1L501.2,196z"/>
	<path class="st0" d="M526.1,167.4l-3-7.6l-8.2,0.5l6.3-5.2l-3-7.6l6.9,4.4l6.3-5.2l-2,7.9l6.9,4.4l-8.2,0.5L526.1,167.4z"/>
	<path class="st0" d="M499.2,136.6l-4.9-5l-6.3,3.1l3.3-6.2l-4.9-5l6.9,1.2l3.2-6.2l1,6.9l6.9,1.2l-6.3,3.1L499.2,136.6z"/>
	<g>
		<defs>
			
				<rect id="SVGID_1_" x="443.5" y="17.7" transform="matrix(0.5633 -0.8263 0.8263 0.5633 165.6249 425.1847)" width="83.2" height="76.5"/>
		</defs>
		<clipPath id="SVGID_00000132806652456855656150000012322554659821970108_">
			<use xlink:href="#SVGID_1_"  style="overflow:visible;"/>
		</clipPath>
		<g style="clip-path:url(#SVGID_00000132806652456855656150000012322554659821970108_);">
			<path class="st0" d="M490.4,80.1l0.1,5.5L477,73.9c-1.5-1.3-3.1-0.8-3.4,0.1l-10.6,17.2l-2.6-1.8l12.1-16.1
				c0.7-0.7,0.6-2.3-1.2-3.2l-15.8-8.3l5.2-1.9c1-0.4,1.6-1.5,1.2-2.6l-7.8-23.5l4.3,1.3c1.1,0.3,2.1-0.3,2.4-1.3l2.5-11.9l7.9,9.2
				c0.7,0.9,2,1,2.7,0.2l4-3.9l1.3,11.6c0.4,3.3,1.7,3.5,2.9,0.6l7.7-18.1l2.2,4.7c0.5,1,1.7,1.5,2.7,1.1l14-5.6l-0.1,15
				c0,1.1,0.9,2,2,2.1l5.2,0.3l-14.1,13.8c-2.3,2.2-1.6,3.3,1.6,2.5l11.3-3l-2.1,5.2c-0.4,1,0.1,2.1,1.2,2.5l11.5,4l-10.2,6.6
				c-0.9,0.6-1.1,1.8-0.4,2.7l2.8,3.6L492.4,78C491.2,78.1,490.4,79,490.4,80.1L490.4,80.1z"/>
		</g>
	</g>
	<g>
		<defs>
			
				<rect id="SVGID_00000038408492581266790190000001582648220218721961_" x="370.4" y="57" transform="matrix(5.087968e-02 -0.9987 0.9987 5.087968e-02 295.2784 464.5271)" width="43.3" height="39.8"/>
		</defs>
		<clipPath id="SVGID_00000128477710175490291900000017210224616832130205_">
			<use xlink:href="#SVGID_00000038408492581266790190000001582648220218721961_"  style="overflow:visible;"/>
		</clipPath>
		<g style="clip-path:url(#SVGID_00000128477710175490291900000017210224616832130205_);">
			<path class="st0" d="M401,86.2l1.5,2.4l-9.2-1.5c-1-0.2-1.6,0.5-1.5,1l-0.1,10.5l-1.7-0.1l1-10.5c0.1-0.5-0.4-1.2-1.4-1.1
				l-9.3,0.6l1.8-2.2c0.4-0.4,0.3-1.1-0.2-1.5l-9.9-8.3l2.3-0.6c0.6-0.2,0.9-0.7,0.7-1.2l-2.1-6l6,2c0.6,0.2,1.1-0.1,1.3-0.6
				l0.8-2.8l3.7,4.8c1,1.3,1.7,1.1,1.5-0.5l-1.5-10.1l2.2,1.5c0.5,0.3,1.2,0.2,1.5-0.2l4.7-6.3l4,6.7c0.3,0.5,0.9,0.7,1.5,0.4
				l2.4-1.3l-2.5,9.9c-0.4,1.6,0.2,1.9,1.4,0.7l4.2-4.4l0.5,2.9c0.1,0.5,0.6,0.9,1.2,0.8l6.2-1.3l-2.7,5.7c-0.2,0.5,0,1.1,0.6,1.3
				l2.2,0.8l-10.7,7.3C400.8,85.1,400.7,85.7,401,86.2L401,86.2z"/>
		</g>
	</g>
	<g>
		<defs>
			
				<rect id="SVGID_00000132050990851738101020000016101139436584841640_" x="15.9" y="160.2" transform="matrix(0.7551 -0.6556 0.6556 0.7551 -117.0294 80.9413)" width="67.9" height="73.8"/>
		</defs>
		<clipPath id="SVGID_00000177465002768816773860000006852043609803541174_">
			<use xlink:href="#SVGID_00000132050990851738101020000016101139436584841640_"  style="overflow:visible;"/>
		</clipPath>
		<g style="clip-path:url(#SVGID_00000177465002768816773860000006852043609803541174_);">
			<path class="st0" d="M71.8,198l4.7,1.1l-13.1,9c-1.5,1-1.4,2.4-0.7,3l12.3,13l-2.1,1.8l-11.1-14c-0.4-0.7-1.8-1-3.1,0.3
				l-10.7,11.7l-0.4-4.8c-0.1-1-1-1.7-1.9-1.6l-22,1.4l2.1-3.4c0.5-0.9,0.3-1.9-0.6-2.3l-9.7-4.8l9.7-4.7c0.9-0.4,1.3-1.5,0.8-2.3
				l-2.4-4.3l10.3,1.5c2.9,0.4,3.4-0.6,1.2-2.4l-13.8-10.7l4.5-0.8c1-0.2,1.7-1.1,1.6-2l-1.6-13.2l12.9,3.5c0.9,0.3,1.9-0.3,2.2-1.3
				l1.4-4.4l8.7,15.2c1.4,2.5,2.5,2.1,2.5-0.8l-0.1-10.4l4,3c0.8,0.6,1.8,0.3,2.4-0.5l6-8.9l3.4,10.3c0.3,0.9,1.3,1.3,2.2,0.9
				l3.7-1.6l-4.5,21.6C70.3,196.8,70.9,197.8,71.8,198L71.8,198z"/>
		</g>
	</g>
</g>
</svg>
